<svg width="973" height="1156" viewBox="0 0 973 1156" fill="none" xmlns="http://www.w3.org/2000/svg">
<g opacity="0.4" filter="url(#filter0_f_255_148)">
<path d="M627.49 300.506C663.816 303.097 700.847 309.735 732.198 328.272C763.824 346.971 787.745 376.389 807.849 407.145C827.615 437.385 839.184 471.684 848.719 506.533C858.319 541.625 867.589 577.381 864.337 613.618C861.061 650.126 850.666 686.886 829.828 717.039C809.418 746.575 777.474 765.613 746.619 783.961C718.279 800.814 687.556 812.287 655.654 820.614C625.182 828.568 593.748 826.864 562.673 831.975C526.182 837.977 490.377 863.843 454.83 853.646C420.151 843.698 400.261 807.161 377.781 778.938C356.779 752.571 339.928 723.674 326.631 692.695C313.552 662.227 299.89 630.891 300.001 597.733C300.11 565.021 321.216 536.479 327.258 504.33C334.002 468.441 317.061 426.237 337.867 396.231C358.321 366.734 401.329 364.64 434.166 350.156C464.404 336.819 493.377 321.742 525.386 313.521C558.903 304.913 592.973 298.044 627.49 300.506Z" fill="#FF6CF5"/>
</g>
<defs>
<filter id="filter0_f_255_148" x="0" y="0" width="1165" height="1156" filterUnits="userSpaceOnUse" color-interpolation-filters="sRGB">
<feFlood flood-opacity="0" result="BackgroundImageFix"/>
<feBlend mode="normal" in="SourceGraphic" in2="BackgroundImageFix" result="shape"/>
<feGaussianBlur stdDeviation="150" result="effect1_foregroundBlur_255_148"/>
</filter>
</defs>
</svg>
