<svg width="1263" height="1252" viewBox="0 0 1263 1252" fill="none" xmlns="http://www.w3.org/2000/svg">
<g filter="url(#filter0_f_255_559)">
<path d="M638.296 325.859C681.051 324.873 721.877 281.21 761.98 296.088C801.594 310.785 813.241 362.275 834.693 398.722C852.778 429.448 859.115 465.515 879.083 495.049C902.482 529.658 948.128 548.025 962.232 587.363C976.166 626.23 969.638 671.018 956.164 710.047C942.784 748.807 909.612 776.256 885.564 809.45C860.867 843.54 844.477 884.443 811.18 910.169C777.086 936.511 735.482 955.045 692.565 958.568C650.125 962.052 609.485 943.712 569.151 930.039C531.579 917.302 497.099 899.065 462.069 880.43C425.063 860.744 380.434 849.711 355.187 816.218C329.952 782.74 332.893 736.451 322.843 695.73C312.932 655.569 283.905 615.298 295.827 575.688C308.311 534.209 361.51 519.621 386.492 484.253C407.936 453.895 409.85 413.401 431.699 383.333C455.35 350.784 480.424 312.462 519.153 301.688C558.531 290.733 597.437 326.801 638.296 325.859Z" fill="#FF5B5B"/>
</g>
<defs>
<filter id="filter0_f_255_559" x="0" y="0" width="1263" height="1252" filterUnits="userSpaceOnUse" color-interpolation-filters="sRGB">
<feFlood flood-opacity="0" result="BackgroundImageFix"/>
<feBlend mode="normal" in="SourceGraphic" in2="BackgroundImageFix" result="shape"/>
<feGaussianBlur stdDeviation="146.5" result="effect1_foregroundBlur_255_559"/>
</filter>
</defs>
</svg>
