<svg width="863" height="543" viewBox="0 0 863 543" fill="none" xmlns="http://www.w3.org/2000/svg">
<path d="M270 319.5V384H236.5V451H163V384H0.5V319.5L152.5 107.5H236.5V319.5H270ZM163 319.5V206.5L81 319.5H163Z" fill="#FFB5F8"/>
<path d="M862.773 319.5V384H829.273V451H755.773V384H593.273V319.5L745.273 107.5H829.273V319.5H862.773ZM755.773 319.5V206.5L673.773 319.5H755.773Z" fill="#FFB5F8"/>
<path d="M482.865 532.645C498.556 526.028 512.764 516.331 524.65 504.126C536.636 491.676 546.141 477.053 552.657 461.039C559.602 444.069 563.116 425.888 562.997 407.549V135.425C563.119 117.077 559.605 98.8866 552.657 81.9075C546.15 65.8973 536.644 51.2814 524.65 38.848C512.763 26.6445 498.555 16.9474 482.865 10.3284C466.553 3.39502 448.995 -0.11879 431.274 0.00368832C413.967 -0.127622 396.813 3.24847 380.843 9.92869C364.874 16.6089 350.42 26.4551 338.351 38.8746C326.362 51.3064 316.847 65.9111 310.317 81.9075C303.368 98.8854 299.863 117.078 300.004 135.425V407.549C299.862 425.887 303.368 444.071 310.317 461.039C316.84 477.049 326.345 491.671 338.324 504.126C350.402 516.533 364.858 526.371 380.826 533.05C396.793 539.729 413.943 543.113 431.247 542.997C448.98 543.126 466.55 539.603 482.865 532.645ZM403.24 469.657C390.674 464.365 379.953 455.469 372.428 444.09C364.902 432.71 360.908 419.355 360.949 405.708V137.266C360.805 123.589 364.753 110.182 372.285 98.7706C379.818 87.3594 390.589 78.4665 403.213 73.2369C412.1 69.5734 421.638 67.758 431.247 67.9011C440.835 67.7789 450.355 69.5184 459.281 73.0235C467.51 76.299 475.022 81.1469 481.4 87.2966C487.685 93.4602 492.621 100.865 495.896 109.04C499.339 117.51 501.087 126.574 501.039 135.719V407.308C501.09 416.453 499.343 425.518 495.896 433.987C492.612 442.134 487.676 449.51 481.4 455.65C475.029 461.809 467.515 466.658 459.281 469.923C450.365 473.434 440.854 475.183 431.274 475.072C421.659 475.19 412.121 473.348 403.24 469.657Z" fill="white"/>
<path d="M482.865 532.645C498.556 526.028 512.764 516.331 524.65 504.126C536.636 491.676 546.141 477.053 552.657 461.039C559.602 444.069 563.116 425.888 562.997 407.549V135.425C563.119 117.077 559.605 98.8866 552.657 81.9075C546.15 65.8973 536.644 51.2814 524.65 38.848C512.763 26.6445 498.555 16.9474 482.865 10.3284C466.553 3.39502 448.995 -0.11879 431.274 0.00368832C413.967 -0.127622 396.813 3.24847 380.843 9.92869C364.874 16.6089 350.42 26.4551 338.351 38.8746C326.362 51.3064 316.847 65.9111 310.317 81.9075C303.368 98.8854 299.863 117.078 300.004 135.425V407.549C299.862 425.887 303.368 444.071 310.317 461.039C316.84 477.049 326.345 491.671 338.324 504.126C350.402 516.533 364.858 526.371 380.826 533.05C396.793 539.729 413.943 543.113 431.247 542.997C448.98 543.126 466.55 539.603 482.865 532.645ZM403.24 469.657C390.674 464.365 379.953 455.469 372.428 444.09C364.902 432.71 360.908 419.355 360.949 405.708V137.266C360.805 123.589 364.753 110.182 372.285 98.7706C379.818 87.3594 390.589 78.4665 403.213 73.2369C412.1 69.5734 421.638 67.758 431.247 67.9011C440.835 67.7789 450.355 69.5184 459.281 73.0235C467.51 76.299 475.022 81.1469 481.4 87.2966C487.685 93.4602 492.621 100.865 495.896 109.04C499.339 117.51 501.087 126.574 501.039 135.719V407.308C501.09 416.453 499.343 425.518 495.896 433.987C492.612 442.134 487.676 449.51 481.4 455.65C475.029 461.809 467.515 466.658 459.281 469.923C450.365 473.434 440.854 475.183 431.274 475.072C421.659 475.19 412.121 473.348 403.24 469.657Z" fill="url(#paint0_linear_319_160)" fill-opacity="0.2"/>
<defs>
<linearGradient id="paint0_linear_319_160" x1="514.5" y1="79.5" x2="379" y2="500" gradientUnits="userSpaceOnUse">
<stop stop-color="#00FF29"/>
<stop offset="0.328278" stop-color="#0047FF"/>
<stop offset="0.528305" stop-color="#FAFF00"/>
<stop offset="0.798357" stop-color="#DB00FF"/>
</linearGradient>
</defs>
</svg>
