<svg width="23" height="22" viewBox="0 0 23 22" fill="none" xmlns="http://www.w3.org/2000/svg">
<path d="M11.3032 21.7116C10.5144 21.7116 9.87496 21.0722 9.87496 20.2834L9.87501 1.71657C9.87501 0.927791 10.5144 0.288356 11.3032 0.288354C12.092 0.288353 12.7314 0.927785 12.7314 1.71657L12.7314 20.2834C12.7314 21.0721 12.092 21.7116 11.3032 21.7116Z" fill="#6EFF90"/>
<path d="M0.612597 11.0001C0.612599 10.2113 1.25203 9.57184 2.04082 9.57183L20.6076 9.57178C21.3964 9.57178 22.0358 10.2112 22.0358 11C22.0358 11.7888 21.3964 12.4282 20.6076 12.4282L2.04081 12.4283C1.25203 12.4283 0.612595 11.7888 0.612597 11.0001Z" fill="#6EFF90"/>
</svg>
