<svg width="24" height="24" viewBox="0 0 24 24" fill="none" xmlns="http://www.w3.org/2000/svg">
<path d="M0.627473 23.3502C-0.209158 22.5136 -0.209158 21.1571 0.627474 20.3205L20.3206 0.62747C21.1572 -0.209157 22.5137 -0.209157 23.3503 0.62747C24.1869 1.4641 24.1869 2.82054 23.3503 3.65716L3.65718 23.3502C2.82055 24.1868 1.4641 24.1868 0.627473 23.3502Z" fill="#FF6CF5"/>
<path d="M0.6497 0.649815C1.48633 -0.186813 2.84278 -0.186812 3.67941 0.649815L23.3725 20.3428C24.2092 21.1795 24.2092 22.5359 23.3725 23.3725C22.5359 24.2092 21.1794 24.2092 20.3428 23.3725L0.649699 3.67951C-0.186932 2.84288 -0.186932 1.48644 0.6497 0.649815Z" fill="#FF6CF5"/>
</svg>
