<svg width="16" height="20" viewBox="0 0 16 20" fill="none" xmlns="http://www.w3.org/2000/svg">
<path d="M4 5.39893C4 7.60806 5.79086 9.39893 8 9.39893C10.2091 9.39893 12 7.60806 12 5.39893C12 3.18979 10.2091 1.39893 8 1.39893C5.79086 1.39893 4 3.18979 4 5.39893Z" fill="#FF6CF5"/>
<path d="M1 15.3336C1 14.4732 1.54085 13.7058 2.35109 13.4164C6.00404 12.1118 9.99596 12.1118 13.6489 13.4164C14.4591 13.7058 15 14.4732 15 15.3336V16.6491C15 17.8365 13.9483 18.7487 12.7728 18.5808L11.8184 18.4444C9.28565 18.0826 6.71435 18.0826 4.18162 18.4444L3.22721 18.5808C2.0517 18.7487 1 17.8365 1 16.6491V15.3336Z" fill="#FF6CF5"/>
<path d="M4 5.39893C4 7.60806 5.79086 9.39893 8 9.39893C10.2091 9.39893 12 7.60806 12 5.39893C12 3.18979 10.2091 1.39893 8 1.39893C5.79086 1.39893 4 3.18979 4 5.39893Z" stroke="#FF6CF5" stroke-width="1.5"/>
<path d="M1 15.3336C1 14.4732 1.54085 13.7058 2.35109 13.4164C6.00404 12.1118 9.99596 12.1118 13.6489 13.4164C14.4591 13.7058 15 14.4732 15 15.3336V16.6491C15 17.8365 13.9483 18.7487 12.7728 18.5808L11.8184 18.4444C9.28565 18.0826 6.71435 18.0826 4.18162 18.4444L3.22721 18.5808C2.0517 18.7487 1 17.8365 1 16.6491V15.3336Z" stroke="#FF6CF5" stroke-width="1.5"/>
</svg>
