<svg width="570" height="430" viewBox="0 0 570 430" fill="none" xmlns="http://www.w3.org/2000/svg">
<path d="M0.0779569 145.083C0.364014 149.45 1.34518 153.655 3.40765 157.553C5.04676 160.648 7.17931 163.41 9.41484 166.091C13.9917 171.569 18.9691 176.662 24.1782 181.529C28.2116 185.301 32.2522 189.07 36.3986 192.717C40.9297 196.703 45.5738 200.558 50.1894 204.446C52.249 206.184 54.3558 207.864 56.4483 209.571C56.6228 209.714 56.8102 209.839 57.0276 210C58.9327 208.449 60.8478 206.926 62.7201 205.357C66.6004 202.107 70.4879 198.867 74.3154 195.56C77.8339 192.52 81.3409 189.462 84.7379 186.292C88.9334 182.378 93.0592 178.393 97.1155 174.336C100.657 170.775 104.007 167.031 107.02 162.999C109.279 159.979 111.295 156.835 112.414 153.182C114.09 147.7 114.455 142.141 113.426 136.511C112.37 130.77 110.044 125.57 106.275 121.104C100.697 114.477 93.5742 110.669 84.8652 110.081C80.8692 109.814 76.8627 110.413 73.1197 111.835C66.2615 114.407 61.0395 118.897 57.2335 125.098C57.172 125.201 57.1091 125.303 57.0261 125.435C56.311 124.39 55.6516 123.344 54.9093 122.361C51.0475 117.234 46.1102 113.534 39.9843 111.528C32.5854 109.105 25.321 109.569 18.284 112.881C11.9622 115.862 7.25941 120.547 3.99264 126.693C0.934696 132.446 -0.342546 138.594 0.0779569 145.083Z" fill="#6EFF8F"/>
<path d="M181.749 131.133L210.5 110L206.648 145.566L239.25 160L206.648 174.434L210.5 210L181.749 188.867L153 210L156.852 174.434L124.25 160L156.852 145.566L153 110L181.749 131.133Z" fill="#FF6CF4"/>
<path d="M349.5 110V210H325.33V151.266L266.587 210L249.5 192.904L308.234 134.17H249.5V110H349.5Z" fill="#BD8BFF"/>
<path d="M409.75 180C427.56 180 438.627 184.493 443.084 187.5C438.627 190.507 427.56 195 409.75 195C391.94 195 380.873 190.507 376.416 187.5C380.873 184.5 391.94 180 409.75 180ZM409.75 165C382.136 165 359.75 175.074 359.75 187.5C359.75 199.926 382.136 210 409.75 210C437.364 210 459.75 199.927 459.75 187.5C459.75 175.073 437.364 165 409.75 165Z" fill="#6EFF8F"/>
<path d="M409.75 125C427.56 125 438.627 129.493 443.084 132.5C438.627 135.507 427.56 140 409.75 140C391.94 140 380.873 135.507 376.416 132.5C380.873 129.493 391.94 125 409.75 125ZM409.75 110C382.136 110 359.75 120.073 359.75 132.5C359.75 144.927 382.136 155 409.75 155C437.364 155 459.75 144.927 459.75 132.5C459.75 120.073 437.364 110 409.75 110Z" fill="#6EFF8F"/>
<path d="M544.453 159.999L570 134.451L545.55 110L520.001 135.547L494.451 110L470 134.451L495.551 159.999L470 185.549L494.451 210L520.001 184.449L545.55 210L570 185.549L544.453 159.999Z" fill="#FF6CF4"/>
<path d="M412.499 351.133L441.25 330L437.398 365.566L470 380L437.398 394.434L441.25 430L412.499 408.867L383.75 430L387.602 394.434L355 380L387.602 365.566L383.75 330L412.499 351.133Z" fill="#FF6CF4"/>
<path d="M356.078 255.083C356.364 259.45 357.345 263.655 359.408 267.553C361.047 270.648 363.179 273.41 365.415 276.091C369.992 281.569 374.969 286.662 380.178 291.529C384.212 295.301 388.252 299.07 392.399 302.717C396.93 306.703 401.574 310.558 406.189 314.446C408.249 316.184 410.356 317.864 412.448 319.571C412.623 319.714 412.81 319.839 413.028 320C414.933 318.449 416.848 316.926 418.72 315.357C422.6 312.107 426.488 308.867 430.315 305.56C433.834 302.52 437.341 299.462 440.738 296.292C444.933 292.378 449.059 288.393 453.116 284.336C456.657 280.775 460.007 277.031 463.02 272.999C465.279 269.979 467.295 266.835 468.414 263.182C470.09 257.7 470.455 252.141 469.426 246.511C468.369 240.77 466.044 235.57 462.275 231.104C456.697 224.477 449.574 220.669 440.865 220.081C436.869 219.814 432.863 220.413 429.12 221.835C422.261 224.407 417.039 228.897 413.234 235.098C413.172 235.201 413.109 235.303 413.026 235.435C412.311 234.39 411.652 233.344 410.909 232.361C407.048 227.234 402.11 223.534 395.984 221.528C388.585 219.105 381.321 219.569 374.284 222.881C367.962 225.862 363.259 230.547 359.993 236.693C356.935 242.446 355.657 248.594 356.078 255.083Z" fill="#BD8BFF"/>
<path d="M182 70C199.81 70 210.877 74.4929 215.334 77.5C210.877 80.5071 199.81 85 182 85C164.19 85 153.123 80.5071 148.666 77.5C153.123 74.5 164.19 70 182 70ZM182 55C154.386 55 132 65.0743 132 77.5C132 89.9257 154.386 100 182 100C209.614 100 232 89.9271 232 77.5C232 65.0729 209.614 55 182 55Z" fill="#BD8BFF"/>
<path d="M182 15C199.81 15 210.877 19.4929 215.334 22.5C210.877 25.5071 199.81 30 182 30C164.19 30 153.123 25.5071 148.666 22.5C153.123 19.4929 164.19 15 182 15ZM182 0C154.386 0 132 10.0729 132 22.5C132 34.9271 154.386 45 182 45C209.614 45 232 34.9271 232 22.5C232 10.0729 209.614 0 182 0Z" fill="#BD8BFF"/>
</svg>
