<svg width="22" height="18" viewBox="0 0 22 18" fill="none" xmlns="http://www.w3.org/2000/svg">
<path fill-rule="evenodd" clip-rule="evenodd" d="M0 6C0 2.82436 2.57436 0.25 5.75 0.25H15.75C18.9256 0.25 21.5 2.82436 21.5 6V12C21.5 15.1756 18.9256 17.75 15.75 17.75H5.75C2.57436 17.75 0 15.1756 0 12V6ZM5.2 5.4C4.86863 5.15147 4.39853 5.21863 4.15 5.55C3.90147 5.88137 3.96863 6.35147 4.3 6.6L9.1 10.2C10.0778 10.9333 11.4222 10.9333 12.4 10.2L17.2 6.6C17.5314 6.35147 17.5985 5.88137 17.35 5.55C17.1015 5.21863 16.6314 5.15147 16.3 5.4L11.5 9C11.0556 9.33333 10.4444 9.33333 10 9L5.2 5.4Z" fill="#FF6CF5"/>
</svg>
