<svg xmlns="http://www.w3.org/2000/svg" viewBox="0 0 550 240.5"><defs><style>.cls-1{fill:#fff;}.cls-2{fill:#ff6cf4;}</style></defs><title>main_pink</title><g id="Слой_2" data-name="Слой 2"><g id="Слой_1-2" data-name="Слой 1"><path class="cls-1" d="M546.68,76.18a50.25,50.25,0,0,1-18,16.5q-11,6-26.84,6a53.33,53.33,0,0,1-20.57-3.78,47.74,47.74,0,0,1-15.67-10.33A44.43,44.43,0,0,1,455.56,69a53.71,53.71,0,0,1-3.5-19.55,51.37,51.37,0,0,1,3.6-19.18,46.92,46.92,0,0,1,10.23-15.77A48.33,48.33,0,0,1,481.75,3.87a55.87,55.87,0,0,1,40.4-.18,43.93,43.93,0,0,1,15,10.14,44.6,44.6,0,0,1,9.5,15.22A53.54,53.54,0,0,1,550,48.14c0,1.84-.06,3.75-.18,5.72s-.19,3.07-.19,3.32h-72.3a25.06,25.06,0,0,0,8.57,14.39q6.56,5.34,16.51,5.34A29.12,29.12,0,0,0,527.5,64.37ZM501.86,21q-9,0-15,4.52a24.6,24.6,0,0,0-8.58,12.63h45.93q-2-8.67-8.3-12.91A24.46,24.46,0,0,0,501.86,21Z"/><path class="cls-1" d="M25.27,11.25A46.29,46.29,0,0,1,29.6,7.47a35.2,35.2,0,0,1,5.81-3.6A37.13,37.13,0,0,1,42.7,1.2a35.11,35.11,0,0,1,8.76-1,36.88,36.88,0,0,1,15,3.05A30.61,30.61,0,0,1,78.57,13.1a41.94,41.94,0,0,1,13.1-9.41A42.14,42.14,0,0,1,109.56.18a42.24,42.24,0,0,1,15.49,2.68,32.09,32.09,0,0,1,11.62,7.65A33,33,0,0,1,144,22.41a45.23,45.23,0,0,1,2.49,15.4V96.47H121V42.05q0-8.29-4.15-13.28t-11.72-5q-8.67,0-13.92,5.44T86,44.27v52.2H60.68V42.05q0-8.29-4.15-13.28t-11.71-5q-8.67,0-13.93,5.44t-5.25,15v52.2H0V1.84H25.27Z"/><path class="cls-1" d="M387.13,96.47,356.33,1.84h28l20.47,70.28L425.13,1.84h27.11l-30.8,94.63Z"/><path class="cls-1" d="M25.27,153.07a46.29,46.29,0,0,1,4.33-3.78,35.2,35.2,0,0,1,5.81-3.6A36.5,36.5,0,0,1,42.7,143a35.11,35.11,0,0,1,8.76-1,36.88,36.88,0,0,1,15,3.05,30.67,30.67,0,0,1,12.08,9.86,40.38,40.38,0,0,1,31-12.91,42.24,42.24,0,0,1,15.49,2.68,32.22,32.22,0,0,1,11.63,7.65,33.15,33.15,0,0,1,7.28,11.9,45.23,45.23,0,0,1,2.49,15.4v58.65H121V183.87q0-8.3-4.15-13.28t-11.72-5q-8.67,0-13.92,5.44t-5.26,15v52.19H60.68V183.87q0-8.3-4.15-13.28t-11.71-5q-8.67,0-13.93,5.44t-5.25,15v52.19H0V143.66H25.27Z"/><path class="cls-1" d="M249.74,218a50.36,50.36,0,0,1-18,16.51q-11,6-26.84,6a53.33,53.33,0,0,1-20.57-3.78,47.89,47.89,0,0,1-15.68-10.33,44.64,44.64,0,0,1-10-15.59,53.71,53.71,0,0,1-3.5-19.55,51.53,51.53,0,0,1,3.59-19.18A46.85,46.85,0,0,1,169,156.3a48.18,48.18,0,0,1,15.86-10.61,55.87,55.87,0,0,1,40.4-.18,43.93,43.93,0,0,1,15,10.14,44.6,44.6,0,0,1,9.5,15.22A53.5,53.5,0,0,1,253.06,190c0,1.84-.06,3.75-.19,5.72s-.18,3.07-.18,3.32h-72.3A25,25,0,0,0,189,213.38q6.56,5.35,16.51,5.35a29.12,29.12,0,0,0,25.09-12.54Zm-44.82-55.14q-9,0-15,4.51A24.67,24.67,0,0,0,181.31,180h45.93q-2-8.67-8.3-12.91A24.48,24.48,0,0,0,204.92,162.85Z"/><path class="cls-1" d="M287.18,153.25a34.75,34.75,0,0,1,10.51-7.65q7-3.6,17-3.6a39.35,39.35,0,0,1,15,2.77,33.44,33.44,0,0,1,11.52,7.75,33.79,33.79,0,0,1,7.38,12.08,45.31,45.31,0,0,1,2.58,15.58v58.1H325.73V184.61q0-8.48-4.52-13.74t-12.82-5.26q-9.4,0-15.12,5.54t-5.72,15.49v51.64H261.91V143.66h25.27Z"/><path class="cls-1" d="M419.43,143.66v22.87H396.19v38q0,6.47,3,9.13t9.5,2.68h10.7v21.94H406.89q-19,0-27.67-8.2t-8.67-24.26V166.53H356.9V143.66h13.65V119.32h25.64v24.34Z"/><path class="cls-1" d="M354.78,30.25a47.83,47.83,0,0,0-10.69-15.68A51,51,0,0,0,327.94,4.06,52,52,0,0,0,307.89.18h-102a52,52,0,0,0-20.06,3.88,50.79,50.79,0,0,0-16.14,10.51A47.86,47.86,0,0,0,159,30.25a48.68,48.68,0,0,0-3.87,19.36,48.14,48.14,0,0,0,14.57,34.87A51,51,0,0,0,185.83,95a51.85,51.85,0,0,0,20.06,3.87h102A51.8,51.8,0,0,0,327.94,95a51.12,51.12,0,0,0,16.15-10.51,48.24,48.24,0,0,0,14.57-34.87A48.52,48.52,0,0,0,354.78,30.25ZM331.17,60.13A25.92,25.92,0,0,1,307.2,76H206.58a25.68,25.68,0,0,1-24-15.86,26.59,26.59,0,0,1-2-10.52A27.84,27.84,0,0,1,182.5,39.1a25.6,25.6,0,0,1,5.35-8.3A23.82,23.82,0,0,1,196,25.36a26.17,26.17,0,0,1,10-1.93H307.8a26.12,26.12,0,0,1,10,1.93,23.82,23.82,0,0,1,8.12,5.44,25.44,25.44,0,0,1,5.35,8.3,27.84,27.84,0,0,1,1.93,10.51A26.59,26.59,0,0,1,331.17,60.13Z"/><polygon class="cls-2" points="550 143.66 550 238.28 527.13 238.28 527.13 182.71 471.55 238.28 455.38 222.11 510.95 166.53 455.38 166.53 455.38 143.66 550 143.66"/></g></g></svg>