<svg width="1096" height="143" viewBox="0 0 1096 143" fill="none" xmlns="http://www.w3.org/2000/svg">
<path d="M30.2004 58.2V140H0.400391V2.99998H37.6004L77.8004 93.6L118 2.99998H155.2V140H124.8V57.8L87.6004 140H67.2004L30.2004 58.2Z" fill="white"/>
<path d="M241.48 142.8C231.48 142.8 222.08 141 213.28 137.4C204.48 133.8 196.747 128.8 190.08 122.4C183.547 116 178.347 108.467 174.48 99.8C170.747 91.1333 168.88 81.7333 168.88 71.6C168.88 61.4667 170.747 52.0667 174.48 43.4C178.347 34.6 183.547 27 190.08 20.6C196.747 14.2 204.48 9.19999 213.28 5.59998C222.08 1.99998 231.48 0.199982 241.48 0.199982C251.747 0.199982 261.28 1.99998 270.08 5.59998C279.013 9.19999 286.68 14.2 293.08 20.6C299.613 27 304.747 34.5333 308.48 43.2C312.213 51.8667 314.08 61.2667 314.08 71.4C314.08 81.6667 312.213 91.1333 308.48 99.8C304.747 108.467 299.613 116 293.08 122.4C286.68 128.8 279.013 133.8 270.08 137.4C261.28 141 251.747 142.8 241.48 142.8ZM241.48 114C247.213 114 252.547 112.933 257.48 110.8C262.547 108.533 266.947 105.533 270.68 101.8C274.413 97.9333 277.28 93.4 279.28 88.2C281.413 83 282.48 77.4 282.48 71.4C282.48 65.4 281.413 59.8667 279.28 54.8C277.28 49.6 274.413 45.1333 270.68 41.4C266.947 37.5333 262.547 34.5333 257.48 32.4C252.547 30.1333 247.213 29 241.48 29C235.613 29 230.213 30.1333 225.28 32.4C220.347 34.5333 216.013 37.5333 212.28 41.4C208.547 45.1333 205.613 49.6 203.48 54.8C201.48 60 200.48 65.6 200.48 71.6C200.48 77.6 201.48 83.2 203.48 88.4C205.613 93.6 208.547 98.1333 212.28 102C216.013 105.733 220.347 108.667 225.28 110.8C230.213 112.933 235.613 114 241.48 114Z" fill="white"/>
<path d="M357.007 140L309.607 2.99998H343.007L376.807 106.6L410.607 2.99998H442.607L395.007 140H357.007Z" fill="white"/>
<path d="M452.158 2.99998H552.358V31H483.158V56.8H547.158V84H483.158V112H552.558V140H452.158V2.99998Z" fill="white"/>
<path d="M596.216 58.2V140H566.416V2.99998H603.616L643.816 93.6L684.016 2.99998H721.216V140H690.816V57.8L653.616 140H633.216L596.216 58.2Z" fill="white"/>
<path d="M738.096 2.99998H838.296V31H769.096V56.8H833.096V84H769.096V112H838.496V140H738.096V2.99998Z" fill="white"/>
<path d="M882.154 53.2V140H852.354V2.99998H886.154L941.354 90V2.99998H971.154V140H937.354L882.154 53.2Z" fill="white"/>
<path d="M1023.3 140V31.4H982.5V2.99998H1095.1V31.4H1054.3V140H1023.3Z" fill="white"/>
</svg>
