<svg width="750" height="64" viewBox="0 0 750 64" fill="none" xmlns="http://www.w3.org/2000/svg">
<path d="M470.809 51.5277C468.554 55.1193 465.491 58.0708 461.892 60.1209C458.26 62.204 453.828 63.2456 448.597 63.2456C445.11 63.3029 441.647 62.6339 438.407 61.277C435.506 60.0414 432.868 58.2128 430.644 55.8972C428.463 53.5917 426.768 50.8287 425.671 47.7884C424.496 44.5374 423.908 41.0845 423.937 37.6068C423.919 34.188 424.524 30.7972 425.72 27.618C426.865 24.549 428.589 21.7553 430.788 19.405C433.031 17.0288 435.702 15.1467 438.645 13.869C445.071 11.2143 452.209 11.1809 458.658 13.7752C461.456 14.974 463.987 16.7725 466.088 19.0561C468.151 21.3358 469.752 24.0326 470.794 26.9826C471.918 30.1629 472.48 33.5321 472.454 36.9246C472.454 37.8829 472.424 38.8776 472.364 39.9036C472.305 40.9295 472.27 41.5024 472.27 41.6326H436.455C437.011 44.5686 438.51 47.2146 440.7 49.1269C442.867 50.9809 445.593 51.9079 448.879 51.9079C451.306 52.0075 453.718 51.4611 455.891 50.3195C458.063 49.1778 459.927 47.4778 461.308 45.3771L470.809 51.5277ZM448.606 22.7902C445.634 22.7902 443.157 23.5749 441.176 25.1442C439.131 26.8073 437.643 29.1109 436.926 31.7219H459.678C459.018 28.7117 457.647 26.4705 455.566 24.9984C453.516 23.5307 451.087 22.7599 448.606 22.7902Z" fill="white"/>
<path d="M12.518 17.7125C13.1935 17.0102 13.9099 16.3527 14.6629 15.7439C15.5622 15.0222 16.5261 14.3943 17.541 13.869C18.6953 13.2741 19.9056 12.8081 21.1523 12.4785C22.5722 12.1139 24.0302 11.9389 25.4917 11.9577C28.047 11.935 30.5783 12.4761 32.9223 13.5461C35.31 14.6823 37.3768 16.4497 38.9212 18.676C40.7623 16.6164 42.9662 14.952 45.4105 13.7753C48.2023 12.4934 51.2271 11.8695 54.2727 11.9473C56.891 11.9036 59.4938 12.3771 61.946 13.343C64.1187 14.2125 66.0836 15.5725 67.7022 17.3271C69.3195 19.0967 70.5576 21.2099 71.3332 23.5246C72.1831 26.1027 72.6005 28.8165 72.5667 31.5448V62.0947H59.9397V33.753C59.9397 30.8747 59.2545 28.5694 57.8839 26.8368C56.5134 25.1043 54.5782 24.2363 52.0782 24.2329C49.215 24.2329 46.9165 25.1772 45.1827 27.066C43.4489 28.9547 42.5886 31.5691 42.6018 34.9092V62.0947H30.059V33.753C30.059 30.8747 29.3738 28.5694 28.0032 26.8368C26.6327 25.1043 24.6991 24.2363 22.2025 24.2329C19.3392 24.2329 17.0391 25.1772 15.302 27.066C13.5649 28.9547 12.698 31.5587 12.7013 34.8779V62.0635H0V12.8118H12.518V17.7125Z" fill="white"/>
<path d="M391.772 62.0947L376.515 12.8118H390.385L400.525 49.4133L410.596 12.8118H424.026L408.768 62.0947H391.772Z" fill="white"/>
<path d="M176.074 27.8442C174.843 24.7417 173.039 21.9326 170.769 19.5826C168.453 17.2128 165.734 15.3334 162.755 14.045C159.598 12.6719 156.217 11.9771 152.806 12.0006H102.19C98.7767 11.9764 95.3933 12.6713 92.2351 14.045C89.2571 15.3315 86.5385 17.2112 84.2259 19.5826C81.956 21.9329 80.1523 24.7419 78.9211 27.8442C77.6315 31.0694 76.9779 34.5409 77.0007 38.0447C76.9763 41.4666 77.6042 44.8584 78.8468 48.0158C80.0893 51.1732 81.9207 54.0311 84.2308 56.4173C86.5432 58.7878 89.2597 60.669 92.2351 61.9601C95.3931 63.3341 98.7769 64.0272 102.19 63.9992H152.806C156.217 64.0272 159.599 63.3341 162.755 61.9601C165.733 60.6704 168.453 58.7911 170.769 56.4226C173.077 54.0345 174.907 51.1763 176.149 48.0193C177.392 44.8623 178.021 41.4714 177.999 38.05C178.024 34.5438 177.368 31.0699 176.074 27.8442ZM164.358 43.5876C163.374 46.0721 161.719 48.1918 159.602 49.6797C157.486 51.1677 155.002 51.9574 152.463 51.9493L127 52L102.532 51.9493C99.988 51.9778 97.4942 51.1972 95.3717 49.7079C93.2492 48.2186 91.5951 46.0889 90.6223 43.5928C89.9409 41.8358 89.6032 39.9499 89.6299 38.05C89.6071 36.1543 89.9307 34.272 90.5826 32.5071C91.1919 30.8803 92.0936 29.3949 93.2375 28.1339C94.3839 26.8913 95.7612 25.9152 97.2818 25.2677C98.8572 24.5869 100.543 24.2414 102.244 24.2508L127.5 24L152.761 24.2508C154.462 24.2407 156.148 24.5863 157.723 25.2677C159.239 25.9171 160.611 26.8931 161.753 28.1339C162.898 29.3936 163.8 30.8793 164.407 32.5071C165.06 34.27 165.386 36.1505 165.365 38.0447C165.387 39.9458 165.044 41.8317 164.358 43.5876Z" fill="white"/>
<path d="M375.074 27.8442C373.843 24.7417 372.039 21.9326 369.769 19.5826C367.453 17.2128 364.734 15.3334 361.755 14.045C358.598 12.6719 355.217 11.9771 351.806 12.0006H301.19C297.777 11.9764 294.393 12.6713 291.235 14.045C288.257 15.3315 285.539 17.2112 283.226 19.5826C280.956 21.9329 279.152 24.7419 277.921 27.8442C276.631 31.0694 275.978 34.5409 276.001 38.0447C275.976 41.4666 276.604 44.8584 277.847 48.0158C279.089 51.1732 280.921 54.0311 283.231 56.4173C285.543 58.7878 288.26 60.669 291.235 61.9602C294.393 63.3341 297.777 64.0272 301.19 63.9992H351.806C355.217 64.0272 358.599 63.3341 361.755 61.9602C364.733 60.6704 367.453 58.7911 369.769 56.4226C372.077 54.0345 373.907 51.1763 375.149 48.0193C376.392 44.8623 377.021 41.4714 376.999 38.05C377.023 34.5438 376.368 31.0699 375.074 27.8442ZM363.358 43.5876C362.374 46.0721 360.719 48.1918 358.602 49.6797C356.486 51.1677 354.002 51.9573 351.463 51.9493H301.532C298.988 51.9778 296.494 51.1972 294.372 49.7079C292.249 48.2186 290.595 46.0889 289.622 43.5928C288.941 41.8358 288.603 39.9499 288.63 38.05C288.607 36.1543 288.931 34.272 289.583 32.5071C290.192 30.8803 291.094 29.3949 292.237 28.1339C293.384 26.8913 294.761 25.9152 296.282 25.2677C297.857 24.5869 299.543 24.2414 301.244 24.2508L335 24L351.761 24.2508C353.462 24.2407 355.148 24.5863 356.723 25.2677C358.238 25.9171 359.611 26.8931 360.753 28.1339C361.898 29.3936 362.8 30.8793 363.407 32.5071C364.06 34.27 364.386 36.1505 364.365 38.0447C364.387 39.9458 364.044 41.8317 363.358 43.5876Z" fill="white"/>
<path d="M490.065 17.5768C490.74 16.8746 491.457 16.2171 492.21 15.6082C493.109 14.8866 494.073 14.2587 495.088 13.7334C496.241 13.1326 497.451 12.663 498.699 12.3324C500.119 11.9678 501.577 11.7928 503.039 11.8116C505.594 11.7889 508.125 12.3301 510.469 13.4001C512.851 14.5412 514.913 16.31 516.453 18.5351C518.404 16.3217 520.785 14.5756 523.435 13.4155C526.085 12.2554 528.941 11.7084 531.81 11.8116C534.428 11.768 537.031 12.2414 539.483 13.2074C541.656 14.0782 543.623 15.4379 545.244 17.1915C546.851 18.965 548.08 21.0776 548.85 23.3889C549.7 25.9671 550.118 28.6808 550.084 31.4092V61.9539H537.487V33.6174C537.487 30.7356 536.801 28.4302 535.431 26.7012C534.06 24.9721 532.125 24.1042 529.625 24.0972C526.762 24.0972 524.463 25.0416 522.73 26.9303C520.996 28.8191 520.127 31.4231 520.124 34.7423V61.9226H507.606V33.6174C507.606 30.7356 506.921 28.4302 505.55 26.7012C504.18 24.9721 502.246 24.1042 499.749 24.0972C496.886 24.0972 494.586 25.0416 492.849 26.9303C491.112 28.8191 490.245 31.4231 490.248 34.7423V61.9226H477.547V12.6762H490.065V17.5768Z" fill="white"/>
<path d="M601.261 51.3922C599.005 54.9841 595.943 57.9371 592.344 59.9905C588.712 62.0737 584.28 63.1153 579.049 63.1153C575.562 63.1726 572.098 62.5035 568.859 61.1467C565.957 59.9099 563.317 58.0815 561.091 55.7669C558.918 53.4543 557.231 50.6884 556.138 47.6477C554.963 44.3966 554.375 40.9438 554.404 37.4661C554.386 34.0478 554.99 30.6574 556.182 27.4773C557.33 24.4046 559.059 21.6088 561.265 19.2591C563.507 16.885 566.178 15.0062 569.121 13.7334C575.548 11.0788 582.686 11.0453 589.134 13.6397C591.933 14.8385 594.464 16.6369 596.565 18.9206C598.628 21.2003 600.229 23.8971 601.271 26.8471C602.389 30.0354 602.943 33.412 602.906 36.8099C602.906 37.7682 602.876 38.7629 602.811 39.7889C602.747 40.8148 602.722 41.3877 602.722 41.5179H566.907C567.471 44.4483 568.977 47.0854 571.172 48.9861C573.339 50.8436 576.065 51.7724 579.351 51.7724C581.778 51.872 584.19 51.3256 586.362 50.1839C588.535 49.0423 590.398 47.3423 591.779 45.2416L601.261 51.3922ZM579.058 22.6755C576.086 22.6755 573.609 23.4584 571.628 25.0243C569.58 26.6868 568.086 28.99 567.363 31.602H590.115C589.455 28.5918 588.084 26.3506 586.003 24.8785C583.957 23.4145 581.534 22.6439 579.058 22.6703V22.6755Z" fill="white"/>
<path d="M619.807 17.6706C621.288 16.0101 623.055 14.6584 625.013 13.6865C627.325 12.4366 630.132 11.8116 633.434 11.8116C635.977 11.7784 638.501 12.2685 640.865 13.2543C643.015 14.1651 644.959 15.5401 646.571 17.2904C648.199 19.0926 649.445 21.2367 650.227 23.5816C651.102 26.1868 651.534 28.9332 651.505 31.6956V61.9539H638.903V34.0028C638.903 31.0585 638.157 28.6733 636.664 26.847C635.171 25.0208 633.054 24.1076 630.313 24.1076C627.209 24.1076 624.712 25.0694 622.823 26.9928C620.934 28.9163 619.99 31.6054 619.99 35.06V61.9539H607.289V12.6762H619.807V17.6706Z" fill="white"/>
<path d="M685.319 12.6762V24.5868H673.807V44.377C673.807 46.6234 674.302 48.2084 675.293 49.1319C676.284 50.0554 677.852 50.5207 679.999 50.5276H685.299V61.9539H679.107C672.833 61.9539 668.264 60.5304 665.4 57.6834C662.537 54.8363 661.106 50.6248 661.106 45.0489V24.5868H654.344V12.6762H661.106V0H673.807V12.6762H685.319Z" fill="white"/>
<path d="M750 12.6764V61.9541H738.671V33.0135L711.138 61.9541L703.128 53.5328L730.656 24.587H703.128V12.6764H750Z" fill="#FF6CF4"/>
<path d="M124 12H337V64H124V12Z" fill="white"/>
<path d="M124 24H337V52H124V24Z" fill="black"/>
</svg>
