<svg width="22" height="18" viewBox="0 0 22 18" fill="none" xmlns="http://www.w3.org/2000/svg">
<path d="M18.9261 15.5996C18.9806 15.6069 19.035 15.6143 19.0894 15.6219L19.3629 15.6603C20.5538 15.8274 21.6192 14.9198 21.6192 13.7382V12.8364C21.6192 11.9913 21.0784 11.2375 20.2682 10.9533C19.3321 10.6249 18.3657 10.4111 17.3902 10.3119C18.4081 11.0478 19.0394 12.2395 19.0394 13.5396V14.6592C19.0394 14.9843 19.0001 15.2992 18.9261 15.5996Z" fill="#FF6CF5"/>
<path d="M14.8003 9.11222C15.206 9.27969 15.6516 9.37224 16.1192 9.37224C18.0005 9.37224 19.5256 7.87417 19.5256 6.02621C19.5256 4.17825 18.0005 2.68018 16.1192 2.68018C16.0634 2.68018 16.008 2.68149 15.9529 2.68409C16.2951 3.4127 16.4862 4.22624 16.4862 5.08443C16.4862 6.66094 15.8411 8.08675 14.8003 9.11222Z" fill="#FF6CF5"/>
<path d="M2.69304 15.5996C2.63858 15.6069 2.58415 15.6143 2.52975 15.6219L2.25624 15.6603C1.06541 15.8274 0 14.9198 0 13.7382V12.8364C0 11.9913 0.540824 11.2375 1.35102 10.9533C2.28707 10.6249 3.25344 10.4111 4.22896 10.3119C3.21107 11.0478 2.57973 12.2395 2.57973 13.5396V14.6592C2.57973 14.9843 2.61908 15.2992 2.69304 15.5996Z" fill="#FF6CF5"/>
<path d="M6.81887 9.11222C6.41322 9.27969 5.96762 9.37224 5.5 9.37224C3.61869 9.37224 2.09358 7.87417 2.09358 6.02621C2.09358 4.17825 3.61869 2.68018 5.5 2.68018C5.55574 2.68018 5.61116 2.68149 5.66624 2.68409C5.32412 3.4127 5.13293 4.22624 5.13293 5.08443C5.13293 6.66094 5.77813 8.08675 6.81887 9.11222Z" fill="#FF6CF5"/>
<path fill-rule="evenodd" clip-rule="evenodd" d="M14.9862 5.08443C14.9862 2.7901 13.1263 0.930176 10.832 0.930176C8.53764 0.930176 6.67771 2.7901 6.67771 5.08443C6.67771 7.37876 8.53764 9.23869 10.832 9.23869C13.1263 9.23869 14.9862 7.37876 14.9862 5.08443Z" fill="#FF6CF5"/>
<path fill-rule="evenodd" clip-rule="evenodd" d="M5.77214 11.2016C9.04416 10.0331 12.6198 10.0331 15.8918 11.2016C16.8799 11.5545 17.5394 12.4904 17.5394 13.5396V14.6592C17.5394 16.1262 16.2401 17.2531 14.7879 17.0456L14.4543 16.998C12.0516 16.6547 9.61233 16.6547 7.20964 16.998L6.87609 17.0456C5.42384 17.2531 4.12453 16.1262 4.12453 14.6592V13.5396C4.12453 12.4904 4.78408 11.5545 5.77214 11.2016Z" fill="#FF6CF5"/>
</svg>
