<svg width="76" height="76" viewBox="0 0 76 76" fill="none" xmlns="http://www.w3.org/2000/svg">
<path id="left" d="M38.8787 25.8787C40.0503 24.7071 41.9497 24.7071 43.1213 25.8787C44.2929 27.0503 44.2929 28.9497 43.1213 30.1213L38.8787 25.8787ZM31 38L28.8787 40.1213C27.7071 38.9497 27.7071 37.0503 28.8787 35.8787L31 38ZM43.1213 45.8787C44.2929 47.0503 44.2929 48.9497 43.1213 50.1213C41.9497 51.2929 40.0503 51.2929 38.8787 50.1213L43.1213 45.8787ZM6 38C6 55.6731 20.3269 70 38 70V76C17.0132 76 0 58.9868 0 38H6ZM38 70C55.6731 70 70 55.6731 70 38H76C76 58.9868 58.9868 76 38 76V70ZM70 38C70 20.3269 55.6731 6 38 6V0C58.9868 0 76 17.0132 76 38H70ZM38 6C20.3269 6 6 20.3269 6 38H0C0 17.0132 17.0132 0 38 0V6ZM43.1213 30.1213L33.1213 40.1213L28.8787 35.8787L38.8787 25.8787L43.1213 30.1213ZM33.1213 35.8787L43.1213 45.8787L38.8787 50.1213L28.8787 40.1213L33.1213 35.8787Z" fill="white"/>
</svg>
