<svg width="76" height="76" viewBox="0 0 76 76" fill="none" xmlns="http://www.w3.org/2000/svg">
<path id="right" d="M37.1213 25.8787C35.9497 24.7071 34.0503 24.7071 32.8787 25.8787C31.7071 27.0503 31.7071 28.9497 32.8787 30.1213L37.1213 25.8787ZM45 38L47.1213 40.1213C48.2929 38.9497 48.2929 37.0503 47.1213 35.8787L45 38ZM32.8787 45.8787C31.7071 47.0503 31.7071 48.9497 32.8787 50.1213C34.0503 51.2929 35.9497 51.2929 37.1213 50.1213L32.8787 45.8787ZM70 38C70 55.6731 55.6731 70 38 70V76C58.9868 76 76 58.9868 76 38H70ZM38 70C20.3269 70 6 55.6731 6 38H0C0 58.9868 17.0132 76 38 76V70ZM6 38C6 20.3269 20.3269 6 38 6V0C17.0132 0 0 17.0132 0 38H6ZM38 6C55.6731 6 70 20.3269 70 38H76C76 17.0132 58.9868 0 38 0V6ZM32.8787 30.1213L42.8787 40.1213L47.1213 35.8787L37.1213 25.8787L32.8787 30.1213ZM42.8787 35.8787L32.8787 45.8787L37.1213 50.1213L47.1213 40.1213L42.8787 35.8787Z" fill="white"/>
</svg>
