<svg width="80" height="80" viewBox="0 0 80 80" fill="none" xmlns="http://www.w3.org/2000/svg">
<path d="M12.4875 19.7719H66.6001V62.4376H12.4875V19.7719Z" fill="white"/>
<path d="M40 0C17.9086 0 0 17.9086 0 40C0 62.0914 17.9086 80 40 80C62.0914 80 80 62.0914 80 40C80 17.9086 62.0914 0 40 0ZM61.3067 53.5781H56.2309C55.6812 53.5787 55.1384 53.4555 54.6429 53.2174C54.1473 52.9793 53.7118 52.6327 53.3687 52.2031C51.8466 50.292 48.8478 46.9034 45.6992 45.448C45.5169 45.3626 45.3159 45.3246 45.115 45.3374C44.914 45.3503 44.7196 45.4136 44.5496 45.5215C44.3795 45.6294 44.2395 45.7784 44.1423 45.9548C44.0451 46.1311 43.994 46.3291 43.9936 46.5305V51.5505C43.9937 51.8167 43.9413 52.0804 43.8394 52.3264C43.7376 52.5724 43.5883 52.7959 43.4 52.9842C43.2118 53.1725 42.9883 53.3219 42.7423 53.4238C42.4963 53.5257 42.2327 53.5781 41.9664 53.5781H39.6194C36.5672 53.5781 29.9944 51.7202 24.757 44.0908C20.2945 37.5908 18.3053 32.5533 17.1453 28.4689C17.0779 28.2295 17.0668 27.9778 17.1131 27.7334C17.1593 27.489 17.2615 27.2587 17.4117 27.0605C17.5619 26.8623 17.756 26.7016 17.9788 26.591C18.2016 26.4804 18.4469 26.4229 18.6956 26.4231H23.8303C24.3426 26.4227 24.8413 26.5876 25.2523 26.8934C25.6634 27.1991 25.9647 27.6294 26.1116 28.1202C27.0664 31.3137 29.5395 38.203 33.9111 41.6336C34.0444 41.7387 34.2046 41.8041 34.3733 41.8224C34.542 41.8408 34.7125 41.8112 34.8652 41.7372C35.018 41.6632 35.1468 41.5477 35.237 41.404C35.3272 41.2602 35.3751 41.0939 35.3753 40.9242V32.8827C35.3753 31.2934 34.6866 29.7034 33.6116 28.4608C33.4567 28.2826 33.3563 28.0635 33.3224 27.8298C33.2885 27.5962 33.3226 27.3576 33.4205 27.1428C33.5185 26.9279 33.6761 26.7457 33.8747 26.618C34.0733 26.4903 34.3045 26.4223 34.5406 26.4223H42.4572C42.8648 26.4223 43.2558 26.5843 43.5441 26.8725C43.8324 27.1608 43.9943 27.5517 43.9944 27.9594V38.7914C43.9944 38.9482 44.0376 39.102 44.1192 39.2359C44.2008 39.3698 44.3176 39.4786 44.457 39.5505C44.5963 39.6224 44.7528 39.6546 44.9092 39.6435C45.0656 39.6324 45.2159 39.5785 45.3438 39.4877C46.7969 38.4533 48.0414 36.9252 49.1861 35.2075C50.6267 33.0469 52.3847 29.4753 53.2666 27.6217C53.4373 27.2626 53.7063 26.9593 54.0424 26.7469C54.3786 26.5346 54.768 26.4219 55.1656 26.4219H60.7656C60.9995 26.4218 61.2295 26.4814 61.4338 26.5951C61.6381 26.7088 61.8101 26.8728 61.9333 27.0715C62.0565 27.2703 62.1269 27.4972 62.1378 27.7308C62.1488 27.9644 62.0999 28.1969 61.9958 28.4063C60.5827 31.2406 57.8303 36.4403 55.2403 39.4909C54.8696 39.9296 54.688 40.4975 54.7356 41.07C54.7831 41.6424 55.0559 42.1725 55.4939 42.5441C57.1822 43.9866 59.8178 46.6534 62.6594 51.0955C62.8161 51.3386 62.9045 51.6195 62.9152 51.9086C62.9258 52.1977 62.8584 52.4843 62.72 52.7383C62.5816 52.9924 62.3773 53.2044 62.1286 53.3522C61.8799 53.5 61.596 53.578 61.3067 53.5781Z" fill="black"/>
</svg>
