<svg width="77" height="77" viewBox="0 0 77 77" fill="none" xmlns="http://www.w3.org/2000/svg">
<path d="M12 19H64V60H12V19Z" fill="white"/>
<path d="M38.4384 0C17.2094 0 0 17.2094 0 38.4384C0 59.6674 17.2094 76.8768 38.4384 76.8768C59.6674 76.8768 76.8768 59.6674 76.8768 38.4384C76.8768 17.2094 59.6674 0 38.4384 0ZM58.9133 51.4864H54.0357C53.5074 51.487 52.9858 51.3686 52.5096 51.1398C52.0334 50.911 51.6149 50.5779 51.2852 50.1651C49.8225 48.3286 46.9408 45.0723 43.9151 43.6737C43.7399 43.5916 43.5468 43.5551 43.3537 43.5675C43.1606 43.5798 42.9737 43.6406 42.8103 43.7443C42.647 43.848 42.5124 43.9912 42.419 44.1607C42.3256 44.3301 42.2765 44.5204 42.2761 44.7139V49.5379C42.2761 49.7938 42.2258 50.0472 42.1279 50.2836C42.0301 50.52 41.8866 50.7348 41.7057 50.9157C41.5248 51.0966 41.31 51.2402 41.0736 51.3381C40.8373 51.436 40.5839 51.4864 40.328 51.4864H38.0726C35.1396 51.4864 28.8234 49.701 23.7905 42.3695C19.5022 36.1232 17.5907 31.2824 16.476 27.3575C16.4112 27.1274 16.4005 26.8855 16.445 26.6507C16.4894 26.4159 16.5876 26.1945 16.732 26.004C16.8763 25.8136 17.0628 25.6591 17.2769 25.5529C17.491 25.4466 17.7268 25.3914 17.9657 25.3916H22.9C23.3923 25.3911 23.8715 25.5496 24.2665 25.8434C24.6615 26.1373 24.951 26.5507 25.0922 27.0223C26.0097 30.0913 28.3863 36.7115 32.5872 40.0082C32.7153 40.1092 32.8692 40.1721 33.0314 40.1897C33.1935 40.2073 33.3573 40.1789 33.5041 40.1078C33.6509 40.0367 33.7747 39.9257 33.8614 39.7876C33.948 39.6494 33.9941 39.4896 33.9943 39.3265V31.5989C33.9943 30.0717 33.3324 28.5438 32.2994 27.3497C32.1505 27.1784 32.0541 26.9679 32.0215 26.7434C31.989 26.5188 32.0217 26.2896 32.1158 26.0831C32.2099 25.8766 32.3614 25.7016 32.5523 25.5788C32.7431 25.4561 32.9652 25.3908 33.1922 25.3908H40.7997C41.1914 25.3908 41.5671 25.5464 41.8441 25.8234C42.1211 26.1004 42.2768 26.4761 42.2768 26.8678V37.277C42.2769 37.4277 42.3183 37.5754 42.3968 37.7041C42.4752 37.8328 42.5875 37.9374 42.7214 38.0065C42.8553 38.0756 43.0056 38.1065 43.1559 38.0958C43.3062 38.0852 43.4507 38.0334 43.5735 37.9461C44.9699 36.9521 46.1659 35.4836 47.2659 33.833C48.6502 31.7567 50.3396 28.3246 51.187 26.5434C51.3511 26.1983 51.6096 25.9068 51.9326 25.7027C52.2556 25.4987 52.6299 25.3903 53.012 25.3904H58.3933C58.618 25.3903 58.8391 25.4476 59.0354 25.5568C59.2318 25.6661 59.397 25.8237 59.5154 26.0146C59.6338 26.2056 59.7015 26.4237 59.712 26.6482C59.7225 26.8726 59.6755 27.0961 59.5755 27.2973C58.2175 30.021 55.5726 35.0177 53.0837 37.9492C52.7275 38.3708 52.553 38.9165 52.5987 39.4666C52.6444 40.0166 52.9065 40.5261 53.3274 40.8831C54.9498 42.2693 57.4825 44.8321 60.2132 49.1007C60.3638 49.3343 60.4487 49.6043 60.459 49.8821C60.4692 50.1599 60.4044 50.4353 60.2714 50.6794C60.1384 50.9235 59.9421 51.1273 59.7031 51.2693C59.4641 51.4113 59.1913 51.4863 58.9133 51.4864Z" fill="black"/>
</svg>
