<svg width="575" height="1156" viewBox="0 0 575 1156" fill="none" xmlns="http://www.w3.org/2000/svg">
<g opacity="0.4" filter="url(#filter0_f_255_150)">
<path d="M37.4904 300.506C73.8164 303.097 110.847 309.735 142.198 328.272C173.824 346.971 197.745 376.389 217.849 407.145C237.615 437.385 249.184 471.684 258.719 506.533C268.319 541.625 277.589 577.381 274.337 613.618C271.061 650.126 260.666 686.886 239.828 717.039C219.418 746.575 187.474 765.613 156.619 783.961C128.279 800.814 97.5559 812.287 65.654 820.614C35.1823 828.568 3.74774 826.864 -27.3271 831.975C-63.8179 837.977 -99.6225 863.843 -135.17 853.646C-169.849 843.698 -189.739 807.161 -212.219 778.938C-233.221 752.571 -250.072 723.674 -263.369 692.695C-276.448 662.227 -290.11 630.891 -289.999 597.733C-289.89 565.021 -268.784 536.479 -262.742 504.33C-255.998 468.441 -272.939 426.237 -252.133 396.231C-231.679 366.734 -188.671 364.64 -155.834 350.156C-125.596 336.819 -96.6233 321.742 -64.6141 313.521C-31.0966 304.913 2.97333 298.044 37.4904 300.506Z" fill="#FF6CF5"/>
</g>
<defs>
<filter id="filter0_f_255_150" x="-590" y="0" width="1165" height="1156" filterUnits="userSpaceOnUse" color-interpolation-filters="sRGB">
<feFlood flood-opacity="0" result="BackgroundImageFix"/>
<feBlend mode="normal" in="SourceGraphic" in2="BackgroundImageFix" result="shape"/>
<feGaussianBlur stdDeviation="150" result="effect1_foregroundBlur_255_150"/>
</filter>
</defs>
</svg>
